<svg width="30" height="30" viewBox="0 0 30 30" fill="none" xmlns="http://www.w3.org/2000/svg">
<path fill-rule="evenodd" clip-rule="evenodd" d="M9.375 27.1875C9.375 26.6697 9.79473 26.25 10.3125 26.25H19.6875C20.2053 26.25 20.625 26.6697 20.625 27.1875C20.625 27.7053 20.2053 28.125 19.6875 28.125H10.3125C9.79473 28.125 9.375 27.7053 9.375 27.1875Z" fill="#252A34"/>
<path fill-rule="evenodd" clip-rule="evenodd" d="M19.7721 5.22684C18.3108 4.2245 16.5711 3.70768 14.7995 3.74968C10.2277 3.85502 6.54137 7.66355 6.56247 12.2417L6.56247 12.243C6.56664 13.5145 6.86013 14.7684 7.42073 15.9097C7.98132 17.0509 8.79431 18.0497 9.7981 18.8302L9.22262 19.5703L9.80279 18.8338C10.2504 19.1865 10.6129 19.6353 10.8634 20.1471C11.114 20.6589 11.2461 21.2206 11.25 21.7904L11.25 21.7968L11.25 22.4999H18.75L18.75 21.795C18.7511 21.2197 18.8837 20.6523 19.1378 20.1361C19.3912 19.6211 19.7588 19.1707 20.2125 18.8192C21.605 17.7251 22.618 16.2205 23.1078 14.5186C23.598 12.8157 23.5395 11.0018 22.9408 9.33395C22.3421 7.66614 21.2334 6.22917 19.7721 5.22684ZM8.64455 20.3083C7.41734 19.3535 6.42335 18.132 5.73779 16.7363C5.05175 15.3396 4.69258 13.8052 4.68748 12.2491L5.62498 12.246L4.68749 12.2504C4.68749 12.2499 4.68748 12.2495 4.68748 12.2491C4.66238 6.65603 9.15593 2.00435 14.7555 1.8752C14.7554 1.8752 14.7556 1.87519 14.7555 1.8752C16.9205 1.82401 19.0469 2.45566 20.8327 3.68062C22.6187 4.9057 23.9737 6.662 24.7055 8.70043C25.4373 10.7389 25.5087 12.9559 24.9097 15.0372C24.3106 17.1185 23.0715 18.9584 21.368 20.2959L21.3624 20.3003C21.1334 20.4773 20.9479 20.7043 20.8201 20.964C20.6924 21.2235 20.6257 21.5086 20.625 21.7978C20.625 21.7975 20.625 21.7981 20.625 21.7978V22.4999C20.625 22.9972 20.4274 23.4741 20.0758 23.8258C19.7242 24.1774 19.2473 24.3749 18.75 24.3749H11.25C10.7527 24.3749 10.2758 24.1774 9.92415 23.8258C9.57252 23.4741 9.37498 22.9972 9.37498 22.4999V21.8003C9.37258 21.5129 9.30574 21.2297 9.17935 20.9714C9.05293 20.7132 8.87017 20.4866 8.64455 20.3083Z" fill="#252A34"/>
<path fill-rule="evenodd" clip-rule="evenodd" d="M15.0249 6.49947C15.1115 5.98898 15.5954 5.64531 16.1059 5.73184C17.4431 5.95852 18.677 6.59466 19.6373 7.55247C20.5975 8.51028 21.2368 9.74252 21.4669 11.0791C21.5547 11.5894 21.2123 12.0743 20.702 12.1621C20.1918 12.2499 19.7069 11.9075 19.6191 11.3972C19.4549 10.4432 18.9985 9.56364 18.3131 8.87999C17.6277 8.19633 16.747 7.74227 15.7926 7.58047C15.2821 7.49393 14.9384 7.00995 15.0249 6.49947Z" fill="#252A34"/>
</svg>
