<svg width="30" height="30" viewBox="0 0 30 30" fill="none" xmlns="http://www.w3.org/2000/svg">
<path fill-rule="evenodd" clip-rule="evenodd" d="M15 11.25C15.5178 11.25 15.9375 11.6697 15.9375 12.1875V16.875C15.9375 17.3928 15.5178 17.8125 15 17.8125C14.4822 17.8125 14.0625 17.3928 14.0625 16.875V12.1875C14.0625 11.6697 14.4822 11.25 15 11.25Z" fill="white"/>
<path fill-rule="evenodd" clip-rule="evenodd" d="M13.595 3.19016C14.0218 2.94262 14.5065 2.81226 15 2.81226C15.4934 2.81226 15.9781 2.94262 16.405 3.19016C16.8311 3.43728 17.1846 3.79242 17.4296 4.21973C17.43 4.22045 17.4304 4.22117 17.4309 4.2219L27.7416 22.0313C27.988 22.4581 28.1179 22.9422 28.1184 23.4351C28.1188 23.9279 27.9897 24.4123 27.7441 24.8395C27.4984 25.2668 27.1447 25.622 26.7186 25.8695C26.2924 26.1171 25.8086 26.2483 25.3158 26.25L25.3125 26.2501H4.68749L4.68419 26.25C4.19133 26.2483 3.70758 26.1171 3.28141 25.8695C2.85523 25.622 2.50159 25.2668 2.25592 24.8395C2.01024 24.4123 1.88116 23.9279 1.88159 23.4351C1.88203 22.9422 2.01197 22.4581 2.25841 22.0313L12.5691 4.2219C12.5695 4.22117 12.57 4.22045 12.5704 4.21973C12.8154 3.79242 13.1688 3.43728 13.595 3.19016ZM13.3828 4.68755L14.1941 5.15727L3.8822 22.9688C3.88213 22.9689 3.88227 22.9687 3.8822 22.9688C3.80019 23.111 3.75674 23.2726 3.75659 23.4367C3.75645 23.601 3.79947 23.7625 3.88137 23.9049C3.96326 24.0473 4.08114 24.1657 4.2232 24.2482C4.36489 24.3305 4.52567 24.3743 4.68951 24.3751H25.3105C25.4743 24.3743 25.6351 24.3305 25.7768 24.2482C25.9188 24.1657 26.0367 24.0473 26.1186 23.9049C26.2005 23.7625 26.2435 23.601 26.2434 23.4367C26.2432 23.2727 26.2 23.1115 26.1181 22.9694C26.118 22.9692 26.1182 22.9695 26.1181 22.9694L15.8035 5.15321C15.7225 5.01165 15.6055 4.89399 15.4644 4.81217C15.3233 4.73035 15.1631 4.68726 15 4.68726C14.8369 4.68726 14.6767 4.73035 14.5356 4.81217C14.3945 4.89399 14.2775 5.01164 14.1965 5.15321L13.3828 4.68755Z" fill="white"/>
<path d="M15 22.5C15.7767 22.5 16.4062 21.8704 16.4062 21.0938C16.4062 20.3171 15.7767 19.6875 15 19.6875C14.2233 19.6875 13.5938 20.3171 13.5938 21.0938C13.5938 21.8704 14.2233 22.5 15 22.5Z" fill="white"/>
</svg>
