<svg width="184" height="83" viewBox="0 0 184 83" fill="none" xmlns="http://www.w3.org/2000/svg">
<path d="M42.0746 82.9999C38.2429 82.9999 34.8804 82.1939 31.9871 80.5821C29.0938 78.9702 26.8456 76.5917 25.2425 73.4465C23.6786 70.3014 22.8966 66.4093 22.8966 61.7703C22.8966 57.2098 23.6786 53.3177 25.2425 50.094C26.8456 46.8309 29.1329 44.3541 32.1044 42.6636C35.0759 40.9338 38.6535 40.0688 42.837 40.0688C45.1048 40.0688 47.4507 40.3244 49.8748 40.8355C52.3381 41.3466 54.8209 42.1328 57.3232 43.1943L56.7367 53.7502H51.7516L50.344 46.9095L51.6343 48.0889C50.2658 47.6172 48.8778 47.2437 47.4703 46.9685C46.0627 46.654 44.7333 46.4967 43.4822 46.4967C41.058 46.4967 38.9858 47.0668 37.2655 48.2069C35.5451 49.347 34.2157 51.0375 33.2774 53.2784C32.3781 55.5193 31.9285 58.3106 31.9285 61.6523C31.9285 66.2914 32.8668 69.9279 34.7436 72.562C36.6594 75.196 39.4354 76.5131 43.0716 76.5131C44.1664 76.5131 45.3198 76.3951 46.5319 76.1592C47.744 75.884 48.9951 75.5105 50.2854 75.0388L49.2884 76.8079V65.6034L50.6373 67.0777L45.007 65.9572V61.5933L61.3113 61.2985V65.7213L56.2675 67.0777L57.0886 65.6034V79.6975C54.3908 80.7983 51.7711 81.6239 49.2297 82.1743C46.6883 82.7247 44.3033 82.9999 42.0746 82.9999Z" fill="#252A34"/>
<path d="M90.5745 78.1053L89.4602 76.4541L94.504 78.0463V82.2333L84.2405 82.764L83.1262 77.1028L83.7127 77.2797C82.1487 79.2061 80.4479 80.641 78.6103 81.5846C76.7726 82.5281 74.8763 82.9999 72.9214 82.9999C70.419 82.9999 68.3468 82.1939 66.7046 80.5821C65.0625 78.9702 64.2414 76.6507 64.2414 73.6235C64.2414 71.3826 64.7106 69.6134 65.649 68.3161C66.6264 66.9794 68.034 66.0162 69.8717 65.4265C71.7093 64.8368 73.9379 64.5419 76.5576 64.5419H82.9502L82.3638 65.1906V61.2985C82.3638 59.4507 81.9141 58.1337 81.0148 57.3474C80.1547 56.5611 78.8839 56.168 77.2027 56.168C76.3816 56.168 75.5019 56.2466 74.5635 56.4039C73.6251 56.5611 72.6086 56.797 71.5138 57.1115L72.3349 56.227L71.5725 61.0036H66.47L66.0009 52.3938C68.6596 51.6075 71.0837 51.0375 73.2733 50.6837C75.5019 50.2905 77.535 50.094 79.3727 50.094C83.0089 50.094 85.7849 50.8802 87.7008 52.4528C89.6166 54.0254 90.5745 56.4628 90.5745 59.7652V78.1053ZM72.5108 72.7979C72.5108 74.2525 72.8432 75.3336 73.5078 76.0413C74.2116 76.7096 75.0914 77.0438 76.147 77.0438C77.1245 77.0438 78.1997 76.7489 79.3727 76.1592C80.5457 75.5302 81.66 74.6849 82.7156 73.6235L82.3638 75.0388V68.3161L82.9502 68.9058H77.9065C75.8733 68.9058 74.4658 69.2203 73.6838 69.8493C72.9018 70.4783 72.5108 71.4612 72.5108 72.7979Z" fill="#252A34"/>
<path d="M97.1166 82.2922V78.0463L102.043 76.631L101.046 77.8104V55.3424L102.043 56.6987L97.1166 55.2244V50.9785L107.439 50.5067L108.494 56.168L107.439 55.7552C109.315 53.8288 111.309 52.4135 113.421 51.5093C115.532 50.5657 117.546 50.094 119.462 50.094C122.12 50.094 124.329 50.9392 126.089 52.6297C127.848 54.2809 128.708 56.797 128.669 60.178V77.8104L127.907 76.631L132.599 78.0463V82.2922H116.94V78.0463L121.397 76.7489L120.459 77.9873V61.9472C120.459 60.0208 120.029 58.6055 119.168 57.7012C118.347 56.797 117.252 56.3449 115.884 56.3449C114.828 56.3449 113.675 56.6398 112.424 57.2295C111.173 57.8192 109.941 58.7037 108.729 59.8832L109.257 58.6448V77.9873L108.494 76.7489L112.776 78.0463V82.2922H97.1166Z" fill="#252A34"/>
<path d="M146.531 82.9999C143.833 82.9999 141.78 82.1939 140.373 80.5821C139.004 78.9309 138.32 76.4934 138.32 73.2696V55.2244L139.376 56.2859H133.746V51.8631L139.493 50.5067L138.32 51.9221V43.902L146.59 42.4277V51.9221L145.71 50.8016H154.624L154.507 56.2859H145.71L146.59 55.2244V72.1492C146.59 73.8397 146.863 75.0584 147.411 75.8054C147.958 76.5524 148.779 76.9258 149.874 76.9258C150.5 76.9258 151.184 76.8276 151.927 76.631C152.709 76.3951 153.549 76.1003 154.449 75.7464L155.973 80.2872C152.689 82.0957 149.542 82.9999 146.531 82.9999Z" fill="#252A34"/>
<path d="M166.927 58.7627C166.927 59.6669 167.318 60.3943 168.1 60.9447C168.882 61.4951 169.879 61.9668 171.091 62.36C172.342 62.7531 173.652 63.1659 175.02 63.5984C176.428 64.0308 177.738 64.6009 178.95 65.3085C180.201 65.9769 181.218 66.8811 182 68.0212C182.781 69.1613 183.172 70.6356 183.172 72.444C183.172 74.7636 182.547 76.7096 181.296 78.2822C180.045 79.8548 178.344 81.0342 176.193 81.8205C174.043 82.6067 171.619 82.9999 168.921 82.9999C167.357 82.9999 165.695 82.8623 163.936 82.5871C162.215 82.3119 160.436 81.9384 158.599 81.4666L158.951 72.562H164.112L164.757 77.7514L164.053 76.7489C164.835 76.9848 165.695 77.1814 166.634 77.3386C167.572 77.4566 168.393 77.5156 169.097 77.5156C170.113 77.5156 171.052 77.378 171.912 77.1028C172.811 76.8276 173.535 76.4344 174.082 75.9233C174.668 75.3729 174.962 74.6849 174.962 73.8593C174.962 72.9158 174.571 72.1688 173.789 71.6184C173.007 71.068 171.99 70.5963 170.739 70.2031C169.527 69.81 168.237 69.3972 166.868 68.9647C165.539 68.5323 164.249 67.9622 162.997 67.2546C161.785 66.5469 160.788 65.6034 160.006 64.424C159.224 63.2445 158.833 61.7113 158.833 59.8242C158.833 57.544 159.4 55.6962 160.534 54.2809C161.668 52.8263 163.173 51.7648 165.05 51.0965C166.966 50.4281 169.058 50.094 171.326 50.094C172.929 50.094 174.629 50.2512 176.428 50.5657C178.226 50.8409 180.064 51.2537 181.941 51.8041L181.648 59.7063H176.428L175.49 55.0475L176.604 56.2859C174.766 55.7748 173.144 55.5193 171.736 55.5193C170.289 55.5193 169.116 55.8142 168.217 56.4039C167.357 56.9543 166.927 57.7406 166.927 58.7627Z" fill="#252A34"/>
<path d="M35.875 21.1043L36.1692 20.6654C37.8853 20.6898 39.3439 20.9214 40.5451 21.3604C41.7708 21.7993 42.7024 22.4698 43.3398 23.372C44.0017 24.2742 44.3326 25.4325 44.3326 26.8468C44.3326 28.3098 43.9772 29.5778 43.2662 30.6507C42.5553 31.6992 41.4767 32.516 40.0303 33.1012C38.5839 33.6621 36.7698 33.9425 34.588 33.9425H23.8506V31.6748L27.3439 30.7604L26.7188 31.6748V10.6436L27.491 11.6312L23.8506 10.7168V8.44905L31.0579 8.26617H35.1028C36.8924 8.26617 38.4001 8.49782 39.6258 8.96111C40.8515 9.42441 41.7831 10.1315 42.4205 11.0825C43.0579 12.0091 43.3765 13.1795 43.3765 14.5938C43.3765 16.5201 42.7637 18.0319 41.5379 19.1292C40.3122 20.2021 38.4246 20.8605 35.875 21.1043ZM34.2203 11.4483H30.5063L31.2418 10.7533V19.9339L30.5063 19.2755H33.3745C34.4777 19.2755 35.4338 19.1414 36.2428 18.8732C37.0518 18.605 37.6769 18.1783 38.1181 17.593C38.5839 16.9834 38.8168 16.191 38.8168 15.2156C38.8168 14.289 38.6207 13.5575 38.2285 13.021C37.8607 12.4602 37.3337 12.0579 36.6473 11.814C35.9609 11.5702 35.1519 11.4483 34.2203 11.4483ZM34.2203 30.7238C35.3235 30.7238 36.2918 30.5897 37.1253 30.3215C37.9588 30.0289 38.5962 29.5778 39.0374 28.9682C39.5032 28.3586 39.7361 27.5539 39.7361 26.5541C39.7361 25.5788 39.5277 24.7863 39.111 24.1767C38.7188 23.5671 38.1794 23.1282 37.493 22.86C36.8066 22.5917 36.0221 22.4576 35.1396 22.4576H30.5063L31.2418 21.653V31.4553L30.5063 30.7238H34.2203Z" fill="#252A34"/>
<path d="M58.8866 34.3448C56.6312 34.3448 54.6578 33.8571 52.9663 32.8818C51.2748 31.9064 49.951 30.4556 48.9949 28.5292C48.0634 26.6029 47.5976 24.2255 47.5976 21.3969C47.5976 19.1536 47.8918 17.1907 48.4801 15.5082C49.0685 13.8013 49.902 12.3871 50.9806 11.2654C52.0593 10.1193 53.3218 9.26591 54.7681 8.70508C56.239 8.14425 57.857 7.86383 59.622 7.86383C61.3381 7.86383 62.8948 8.14425 64.2921 8.70508C65.7139 9.24152 66.9274 10.0462 67.9325 11.1191C68.9621 12.192 69.7589 13.5209 70.3227 15.1059C70.9111 16.6908 71.2052 18.5318 71.2052 20.6288C71.2052 23.5061 70.6782 25.9689 69.624 28.0172C68.5944 30.0411 67.1603 31.6016 65.3217 32.6989C63.4831 33.7962 61.3381 34.3448 58.8866 34.3448ZM59.2175 30.8701C60.5413 30.8701 61.7303 30.5409 62.7844 29.8826C63.8631 29.2242 64.7211 28.1635 65.3585 26.7004C66.0204 25.2374 66.3513 23.2867 66.3513 20.8483C66.3513 18.5806 66.0449 16.7518 65.432 15.3619C64.8437 13.9476 64.0347 12.9235 63.0051 12.2895C61.9755 11.6555 60.7742 11.3385 59.4014 11.3385C58.1021 11.3385 56.9132 11.6555 55.8345 12.2895C54.7804 12.9235 53.9469 13.972 53.334 15.4351C52.7457 16.8737 52.4515 18.8122 52.4515 21.2506C52.4515 23.5183 52.7334 25.3593 53.2972 26.7736C53.8611 28.1879 54.6456 29.2242 55.6507 29.8826C56.6803 30.5409 57.8692 30.8701 59.2175 30.8701Z" fill="#252A34"/>
<path d="M84.7862 10.5339L81.4032 11.558L81.918 10.8265V31.4553L81.4032 30.797L84.7862 31.6748V33.9425H74.5268V31.6748L77.873 30.797L77.395 31.4553V10.8265L78.0201 11.558L74.5268 10.7168V8.44905L84.7862 8.26617V10.5339ZM74.4165 6.58367L72.9456 4.82803L78.204 0.219455L80.7413 0L86.3306 4.82803L84.823 6.58367L78.0201 2.37744L81.0354 2.41401L74.4165 6.58367Z" fill="#252A34"/>
<path d="M91.2515 33.9425V31.6748L95.4067 30.7238L94.561 31.8577V10.7899L95.4803 11.5214H89.1187L90.1483 10.6436L89.2658 15.2888H86.5446V8.26617H107.1V15.2888H104.379L103.533 10.7899L104.526 11.5214H98.1646L99.0839 10.7899V31.8577L98.2749 30.7238L102.393 31.6748V33.9425H91.2515Z" fill="#252A34"/>
<path d="M125.155 27.3588H127.839L127.802 33.9425H108.828V31.6748L112.321 30.7604L111.696 31.6748V10.6436L112.321 11.558L108.828 10.7168V8.44905L116.146 8.26617H127.398V14.5938H124.677L123.978 10.8631L124.861 11.5214H115.484L116.219 10.7899V20.007L115.484 19.2755H124.566V22.4211H115.484L116.219 21.6164V31.4187L115.484 30.6872H125.302L124.419 31.4187L125.155 27.3588Z" fill="#252A34"/>
<path d="M1.55091 19.8356H5.81166V20.9886H0V9.54028H1.55091V19.8356Z" fill="#252A34"/>
<path d="M14.4967 18.3417H9.21333L8.2078 20.9886H6.53758L10.9858 9.75139H12.7412L17.1724 20.9886H15.5022L14.4967 18.3417ZM14.0535 17.1887L11.855 11.4077L9.65645 17.1887H14.0535Z" fill="#252A34"/>
<path d="M144.279 31.698H139.066L138.073 34.3449H136.425L140.815 23.1078H142.547L146.92 34.3449H145.271L144.279 31.698ZM143.842 30.5451L141.672 24.7641L139.503 30.5451H143.842ZM142.379 21.1266V22.1822L138.797 20.2822V19.0806L142.379 21.1266Z" fill="#252A34"/>
</svg>
